<svg viewBox="0 0 578 97" xmlns="http://www.w3.org/2000/svg" xmlns:xlink="http://www.w3.org/1999/xlink" fill-rule="evenodd" clip-rule="evenodd" stroke-miterlimit="10"><path fill="none" d="M0 0h577.48v96.72H0z"/><clipPath id="a"><path d="M0 0h577.48v96.72H0z"/></clipPath><g clip-path="url(#a)"><path fill="#ed1c24" d="M-8.539-5.28h220.79V97.129H-8.539z"/><path fill="url(#_Linear2)" d="M-8.54 45.804h57.698V91.65H-8.54z"/><path fill="url(#_Linear3)" d="M49.159-5.28h54.821v51.085H49.159z"/><path fill="#008060" d="M-8.539 89.7h57.698v234.618H-8.539z"/><path d="M53.267 43.217h4.149v-7.79c.344.064.773.095 1.26.095 2.26 0 4.406-.699 5.809-2.194 1.087-1.208 1.717-2.957 1.717-5.119 0-2.003-.716-3.784-1.918-4.865-1.287-1.208-3.176-1.717-5.723-1.717-2.289 0-4.035.191-5.294.445v21.145zm4.149-17.838c.286-.095.801-.159 1.517-.159 2.06 0 3.119 1.272 3.119 3.212 0 2.098-1.259 3.466-3.434 3.466-.515 0-.887-.032-1.202-.096v-6.423zM74.243 43.535c3.205 0 6.725-2.289 6.725-8.203 0-4.77-2.604-7.981-6.553-7.981-3.978 0-6.868 3.02-6.868 8.171 0 5.024 2.804 8.013 6.668 8.013h.028zm.057-3.37c-1.659 0-2.489-2.067-2.489-4.738 0-2.258.629-4.706 2.489-4.706 1.746 0 2.404 2.448 2.404 4.706 0 2.639-.83 4.738-2.375 4.738H74.3zM83.773 43.217h4.178v-7.885c0-.477.029-.891.114-1.209.315-1.558 1.403-2.384 2.748-2.384.458 0 .772.031 1.087.095v-4.388a3.812 3.812 0 00-.887-.095c-1.259 0-2.804.922-3.491 3.02h-.115l-.171-2.702h-3.577c.057 1.367.114 2.925.114 4.992v10.556zM95.392 24.807v2.862h-1.803v3.37h1.803v6.677c0 2.258.4 3.657 1.202 4.547.686.763 1.802 1.24 3.119 1.24 1.144 0 2.118-.159 2.661-.381l-.028-3.53c-.401.096-.659.128-1.202.128-1.145 0-1.632-.732-1.632-2.608v-6.073h3.005v-3.37h-3.005v-4.166l-4.12 1.304zM117.369 27.669h-4.177v9.475c0 .413-.058.827-.172 1.113-.258.699-.858 1.494-1.889 1.494-1.373 0-1.946-1.335-1.946-3.561v-8.521h-4.178v9.221c0 4.61 1.774 6.645 4.55 6.645 2.204 0 3.463-1.367 4.035-2.353h.086l.201 2.035h3.605a113.012 113.012 0 01-.115-4.928v-10.62zM133.281 32.406c0-2.194.057-3.593.114-4.737h-3.606l-.171 1.78h-.057c-.659-1.24-1.775-2.098-3.463-2.098-3.205 0-5.866 3.148-5.866 8.203 0 4.197 2.089 7.536 5.465 7.536 1.431 0 2.69-.668 3.406-1.876h.057v.986c0 2.734-1.316 4.006-3.348 4.006a7.273 7.273 0 01-3.635-1.017l-.83 3.529c1.202.668 2.891 1.049 4.579 1.049 2.061 0 3.978-.477 5.352-1.844 1.459-1.463 2.003-3.72 2.003-6.804v-8.713zm-4.178 4.261c0 .413-.029.89-.143 1.272-.286 1.017-1.059 1.685-1.975 1.685-1.602 0-2.547-1.717-2.547-4.197 0-2.735 1.059-4.452 2.576-4.452 1.03 0 1.717.795 2.003 1.876.057.287.086.636.086.954v2.862zM149.049 27.669h-4.178v9.475c0 .413-.058.827-.172 1.113-.258.699-.858 1.494-1.889 1.494-1.373 0-1.946-1.335-1.946-3.561v-8.521h-4.178v9.221c0 4.61 1.774 6.645 4.55 6.645 2.204 0 3.463-1.367 4.036-2.353h.085l.201 2.035h3.605a113.205 113.205 0 01-.114-4.928v-10.62zM164.187 36.985a13.42 13.42 0 00.143-2.003c0-4.102-1.717-7.631-5.809-7.631-4.321 0-6.61 4.006-6.61 8.33 0 4.833 2.546 7.822 6.982 7.822 1.746 0 3.406-.318 4.722-.89l-.572-3.18c-1.031.382-2.147.605-3.491.605-1.918 0-3.549-.923-3.635-3.053h8.27zm-8.299-3.211c.086-1.368.773-3.244 2.404-3.244 1.717 0 2.175 1.845 2.175 3.244h-4.579zM166.276 42.454c.945.636 2.49 1.049 4.121 1.049 3.692 0 5.724-2.003 5.724-4.992 0-2.098-1.03-3.656-3.492-4.737-1.602-.732-2.089-1.113-2.089-1.845 0-.763.573-1.272 1.603-1.272 1.059 0 2.089.446 2.69.795l.744-3.243c-.83-.445-2.118-.858-3.606-.858-3.291 0-5.38 2.194-5.38 5.055 0 1.717.916 3.434 3.635 4.579 1.516.668 1.946 1.081 1.946 1.908s-.573 1.303-1.775 1.303c-1.173 0-2.661-.572-3.377-1.049l-.744 3.307zM190.401 36.985a13.56 13.56 0 00.143-2.003c0-4.102-1.717-7.631-5.81-7.631-4.321 0-6.61 4.006-6.61 8.33 0 4.833 2.547 7.822 6.983 7.822 1.745 0 3.405-.318 4.721-.89l-.572-3.18c-1.031.382-2.146.605-3.491.605-1.918 0-3.549-.923-3.635-3.053h8.271zm-8.299-3.211c.085-1.368.772-3.244 2.403-3.244 1.717 0 2.175 1.845 2.175 3.244h-4.578zM20.04 54.177h-6.296v-4.61h6.639v-3.848H9.566V67.15h11.218v-3.847h-7.04v-5.342h6.296v-3.784zM32.374 63.335c-.572.287-1.288.445-2.175.445-2.003 0-3.52-1.589-3.52-4.419 0-2.576 1.345-4.42 3.491-4.42 1.002 0 1.66.223 2.118.413l.629-3.465c-.743-.35-1.86-.573-2.947-.573-4.808 0-7.526 3.593-7.526 8.236 0 4.928 2.718 7.885 6.954 7.885 1.459 0 2.776-.286 3.434-.636l-.458-3.466zM40.358 67.469c3.205 0 6.725-2.289 6.725-8.204 0-4.769-2.604-7.981-6.553-7.981-3.978 0-6.868 3.021-6.868 8.172 0 5.024 2.804 8.013 6.667 8.013h.029zm.057-3.371c-1.66 0-2.49-2.066-2.49-4.737 0-2.258.63-4.706 2.49-4.706 1.746 0 2.404 2.448 2.404 4.706 0 2.639-.83 4.737-2.375 4.737h-.029z" fill="#fbbea7" fill-rule="nonzero"/><path d="M49.601 67.15h4.177v-9.126c0-.477.058-.954.172-1.272.287-.89.945-1.685 1.975-1.685 1.431 0 1.975 1.336 1.975 3.116v8.967h4.177v-9.444c0-4.229-1.831-6.423-4.635-6.423-2.09 0-3.463 1.304-4.064 2.353h-.086l-.2-2.035h-3.606c.057 1.431.115 3.021.115 4.897V67.15zM71.264 67.468c3.204 0 6.725-2.289 6.725-8.203 0-4.77-2.605-7.981-6.554-7.981-3.978 0-6.868 3.021-6.868 8.172 0 5.024 2.805 8.012 6.668 8.012h.029zm.057-3.37c-1.66 0-2.49-2.067-2.49-4.738 0-2.257.63-4.706 2.49-4.706 1.746 0 2.404 2.449 2.404 4.706 0 2.639-.83 4.738-2.375 4.738h-.029zM80.793 67.15h4.092v-9.284c0-.414.029-.859.143-1.208.287-.827.916-1.622 1.86-1.622 1.346 0 1.803 1.367 1.803 3.084v9.03h4.093v-9.316c0-.413.057-.89.143-1.208.286-.922.915-1.59 1.831-1.59 1.317 0 1.832 1.335 1.832 3.434v8.68h4.092v-9.38c0-4.356-1.774-6.486-4.378-6.486-.974 0-1.775.254-2.462.699-.658.414-1.23 1.05-1.717 1.813h-.057c-.572-1.558-1.86-2.512-3.606-2.512-2.089 0-3.319 1.304-3.949 2.321h-.085l-.201-2.003h-3.549c.058 1.431.115 3.021.115 4.897V67.15zM104.144 67.15h4.179V51.602h-4.179V67.15zm2.061-17.456c1.317 0 2.204-1.017 2.204-2.353-.029-1.399-.887-2.385-2.175-2.385-1.317 0-2.204.986-2.204 2.385 0 1.336.859 2.353 2.147 2.353h.028zM120.8 63.335c-.573.286-1.288.445-2.175.445-2.003 0-3.52-1.59-3.52-4.42 0-2.575 1.345-4.419 3.492-4.419 1.001 0 1.659.222 2.117.413l.63-3.466c-.744-.35-1.861-.572-2.948-.572-4.807 0-7.526 3.593-7.526 8.235 0 4.929 2.719 7.886 6.954 7.886 1.459 0 2.776-.287 3.434-.636l-.458-3.466zM108.281 84.029c0 3.148-1.087 3.943-2.69 3.943a5.618 5.618 0 01-1.918-.318l-.429 3.783c.715.287 1.86.446 2.776.446 3.806 0 6.439-1.781 6.439-7.886V70.134h-4.178v13.895zM121.989 91.883c3.205 0 6.725-2.289 6.725-8.204 0-4.769-2.605-7.981-6.554-7.981-3.977 0-6.868 3.021-6.868 8.172 0 5.024 2.804 8.013 6.668 8.013h.029zm.057-3.37c-1.66 0-2.49-2.067-2.49-4.738 0-2.258.63-4.706 2.49-4.706 1.745 0 2.404 2.448 2.404 4.706 0 2.639-.83 4.738-2.376 4.738h-.028zM143.823 76.016h-4.178v9.476c0 .413-.057.827-.172 1.113-.257.699-.858 1.494-1.888 1.494-1.374 0-1.946-1.335-1.946-3.561v-8.522h-4.178v9.221c0 4.611 1.774 6.646 4.55 6.646 2.204 0 3.462-1.367 4.035-2.353h.086l.2 2.035h3.606a113.012 113.012 0 01-.115-4.928V76.016zM147.372 91.565h4.178v-7.886c0-.477.029-.89.115-1.208.315-1.558 1.402-2.385 2.747-2.385.458 0 .772.032 1.087.096v-4.388a3.81 3.81 0 00-.887-.096c-1.259 0-2.804.923-3.491 3.021h-.115l-.171-2.703h-3.577c.057 1.368.114 2.926.114 4.993v10.556zM157.789 91.565h4.178v-9.126c0-.477.057-.954.172-1.271.286-.891.944-1.686 1.974-1.686 1.431 0 1.975 1.336 1.975 3.116v8.967h4.178v-9.444c0-4.229-1.832-6.423-4.636-6.423-2.089 0-3.463 1.304-4.064 2.353h-.085l-.201-2.035h-3.605c.056 1.431.114 3.021.114 4.897v10.652zM184.717 82.344c0-3.529-1.23-6.646-5.78-6.646-2.376 0-4.178.764-5.094 1.336l.744 2.989c.916-.604 2.232-1.081 3.577-1.081 1.918 0 2.375 1.081 2.375 2.035v.254c-4.407 0-7.669 1.844-7.669 5.914 0 2.544 1.631 4.738 4.264 4.738 1.545 0 2.861-.636 3.749-1.876h.057l.257 1.558h3.75c-.172-.922-.23-2.289-.23-3.688v-5.533zm-4.063 3.816c0 .254 0 .54-.057.763-.286.985-1.117 1.653-2.061 1.653-.858 0-1.602-.604-1.602-1.908 0-1.939 1.745-2.512 3.72-2.512v2.004z" fill="#231f20" fill-rule="nonzero"/><path fill="#231f20" d="M188.209 69.148h4.178v22.417h-4.178z"/><g font-family="'LucidaGrande-Bold','Lucida Grande',sans-serif" font-weight="600" font-size="30" stroke-width=".69"><text x="199.35" y="125.256" fill="#fbbea7" stroke="#fbbea7" transform="translate(-3.01 -79.563)">E</text><text x="216.447" y="125.256" fill="#db0a5b" stroke="#db0a5b" transform="translate(-3.01 -79.563)">c<tspan x="231.494px 249.734px 268.516px 286.756px 314.927px 331.497px 340.465px 360.243px 376.901px 392.943px 409.601px 426.318px 439.035px 454.082px 472.863px 481.831px 501.609px 518.267px 537.224px 555.464px 568.182px" y="125.256px 125.256px 125.256px 125.256px 125.256px 125.256px 125.256px 125.256px 125.256px 125.256px 125.256px 125.256px 125.256px 125.256px 125.256px 125.256px 125.256px 125.256px 125.256px 125.256px 125.256px">onomy Research Report</tspan></text></g><g font-family="'LucidaGrande-Bold','Lucida Grande',sans-serif" font-weight="600" font-size="18.025"><text x="355.58" y="146.043" transform="translate(-137.154 -74.813)">A<tspan x="368.132px 373.41px 384.632px 389.773px 400.564px 411.733px 417.012px 428.234px 438.074px 449.297px 454.437px 463.31px 473.186px 479.77px 489.61px 500.832px 506.111px 512.695px 523.486px 528.764px 538.64px 543.78px 548.921px 554.199px 561.672px 571.513px 580.984px 590.824px 600.7px 608.173px 617.045px 628.162px 633.44px 644.231px" y="146.043px 146.043px 146.043px 146.043px 146.043px 146.043px 146.043px 146.043px 146.043px 146.043px 146.043px 146.043px 146.043px 146.043px 146.043px 146.043px 146.043px 146.043px 146.043px 146.043px 146.043px 146.043px 146.043px 146.043px 146.043px 146.043px 146.043px 146.043px 146.043px 146.043px 146.043px 146.043px 146.043px 146.043px"> blog dedicated to all research on</tspan></text><text x="355.58" y="164.068" transform="translate(-137.154 -74.813)">t<tspan x="362.164px 373.281px 383.122px 388.4px 398.733px 409.524px 416.997px 423.581px 434.698px 445.868px 456.984px 466.825px 476.296px 486.136px 491.414px 501.255px 510.127px 520.918px 532.035px 542.826px 559.585px 569.372px" y="164.068px 164.068px 164.068px 164.068px 164.068px 164.068px 164.068px 164.068px 164.068px 164.068px 164.068px 164.068px 164.068px 164.068px 164.068px 164.068px 164.068px 164.068px 164.068px 164.068px 164.068px 164.068px">he Portuguese economy.</tspan></text></g><use xlink:href="#_Image4" width="54" height="74" transform="matrix(.75 0 0 .75 462.241 -5.28)"/></g><defs><linearGradient id="_Linear2" x1="0" y1="0" x2="1" y2="0" gradientUnits="userSpaceOnUse" gradientTransform="rotate(90 -16.957 29.084) scale(45.8571)"><stop offset="0" stop-color="#010"/><stop offset=".9" stop-color="#007c5d"/><stop offset="1" stop-color="#008060"/></linearGradient><linearGradient id="_Linear3" x1="0" y1="0" x2="1" y2="0" gradientUnits="userSpaceOnUse" gradientTransform="rotate(-90 56.69 -10.913) scale(50.8709)"><stop offset="0" stop-color="#010"/><stop offset=".9" stop-color="#007c5d"/><stop offset="1" stop-color="#008060"/></linearGradient></defs></svg>